<svg id="圖層_1" data-name="圖層 1" xmlns="http://www.w3.org/2000/svg" viewBox="0 0 67.68 63.8"><defs><style>.cls-1{fill:#2e9cd4;}.cls-2{fill:#d48c22;}.cls-3{fill:#71d415;}</style></defs><title>Logo</title><polygon class="cls-1" points="18.37 8.63 0 19.36 0 26.26 6.29 22.56 6.29 40.93 0 37.11 0 44.14 18.37 54.74 18.37 48.08 12.33 44.14 12.45 19.36 18.37 15.9 18.37 8.63"/><polygon class="cls-2" points="34 0 24.66 5.2 24.66 12.18 33.87 6.93 43 12.14 43 5.06 34 0"/><polygon class="cls-1" points="49.41 8.69 67.68 19.36 67.68 26.54 61.55 22.9 61.77 47.62 55.76 51.04 55.76 19.42 49.41 15.81 49.41 8.69"/><polygon class="cls-1" points="49.41 36.8 49.41 23.12 34.03 14.05 22.01 20.99 28.11 24.5 33.83 21.17 43 26.33 43 33.19 49.41 36.8"/><polygon class="cls-1" points="39.66 38.81 45.68 42.53 34.03 49.47 18.37 40.78 18.37 26.72 24.66 30.24 24.66 36.8 33.83 42.16 39.66 38.81"/><polygon class="cls-3" points="24.66 51.59 34.03 56.77 43 51.59 43 58.62 34.03 63.8 24.66 58.34 24.66 51.59"/><path class="cls-1" d="M140.82,48.3" transform="translate(-116.16 -43.1)"/></svg>